<?xml version="1.0" encoding="UTF-8"?>
<!DOCTYPE svg PUBLIC "-//W3C//DTD SVG 1.1//EN" "http://www.w3.org/Graphics/SVG/1.1/DTD/svg11.dtd">
<!-- Creator: CorelDRAW -->
<svg xmlns="http://www.w3.org/2000/svg" xml:space="preserve" width="6.82666in" height="6.82666in" style="shape-rendering:geometricPrecision; text-rendering:geometricPrecision; image-rendering:optimizeQuality; fill-rule:evenodd; clip-rule:evenodd"
viewBox="0 0 6.82666 6.82666"
 xmlns:xlink="http://www.w3.org/1999/xlink">
 <defs>
  <style type="text/css">
   <![CDATA[
    .fil4 {fill:none}
    .fil3 {fill:#424242}
    .fil0 {fill:#64B5F6}
    .fil2 {fill:#424242;fill-rule:nonzero}
    .fil1 {fill:#64B5F6;fill-rule:nonzero}
   ]]>
  </style>
 </defs>
 <g id="Layer_x0020_1">
  <metadata id="CorelCorpID_0Corel-Layer"/>
  <g id="_459875848">
   <polygon id="_459875656" class="fil0" points="2.65252,4.96042 2.65252,3.54694 2.00157,3.54694 2.00157,4.96048 "/>
   <polygon id="_459876112" class="fil0" points="3.13318,4.96037 3.13318,2.62349 3.78413,2.62349 3.78413,4.9603 "/>
   <polygon id="_459876184" class="fil0" points="4.91574,4.96019 4.91574,1.95739 4.26479,1.95739 4.26479,4.96026 "/>
  </g>
  <path class="fil1" d="M2.01282 1.16184l0.133484 0 0.0680709 0.219575 0.0630827 -0.219575 0.124579 0 -0.130835 0.352528c-0.0148425,0.0401811 -0.0301063,0.0673228 -0.0456969,0.0813189 -0.0219449,0.0199331 -0.0553465,0.0298976 -0.100295,0.0298976 -0.0182402,0 -0.0463346,-0.00254724 -0.0845,-0.0075315l-0.00985827 -0.0882047c0.0181299,0.00583071 0.0384803,0.00868898 0.0608543,0.00868898 0.0148425,0 0.0269252,-0.00338976 0.0361535,-0.0101772 0.00922441,-0.00688976 0.0170669,-0.0190827 0.0234291,-0.0366811l-0.138469 -0.329839z"/>
  <polygon class="fil2" points="1.49565,1.39927 1.49565,5.04053 5.79924,5.0401 5.79924,5.30572 1.36231,5.30616 1.22898,5.30617 1.22898,5.17335 1.22898,1.39927 "/>
  <polygon class="fil3" points="1.87128,1.65375 0.853331,1.65375 1.36231,1.14478 "/>
  <polygon class="fil1" points="5.40815,4.23476 5.55817,4.23476 5.61065,4.32668 5.6715,4.23476 5.81104,4.23476 5.69854,4.39188 5.81909,4.56459 5.6715,4.56459 5.61065,4.45836 5.53887,4.56459 5.40189,4.56459 5.5218,4.39188 "/>
  <polygon class="fil3" points="5.46436,5.68189 5.46436,4.66394 5.97333,5.17291 "/>
 </g>
 <rect class="fil4" width="6.82666" height="6.82666"/>
</svg>
